<?xml version="1.0" encoding="utf-8"?>
<!-- Generator: Adobe Illustrator 25.0.0, SVG Export Plug-In . SVG Version: 6.00 Build 0)  -->
<svg version="1.1" id="Layer_1" xmlns="http://www.w3.org/2000/svg" xmlns:xlink="http://www.w3.org/1999/xlink" x="0px" y="0px"
	 viewBox="0 0 714.556 290.45" style="enable-background:new 0 0 714.556 290.45;" xml:space="preserve">
<style type="text/css">
	.st0{fill:#FFFFFF;}
	.st1{fill:#F15925;}
	.st2{fill:#FFFFFF;}
</style>
<g>
	<g>
		<path class="st0" d="M243.148,194.146c-10.007,0-18.013,8.006-18.013,17.79c0,10.119,8.006,18.013,18.013,18.013
			c9.896,0,17.901-7.894,17.901-18.013C261.048,202.152,253.044,194.146,243.148,194.146z"/>
		<path class="st0" d="M203.008,194.035c-10.006,0-18.012,8.006-18.012,17.79c0,10.119,8.006,18.013,18.012,18.013
			c9.896,0,17.902-7.894,17.902-18.013C220.91,202.041,212.904,194.035,203.008,194.035z"/>
		<path class="st0" d="M303.188,195.258c-10.007,0-18.013,8.006-18.013,17.79c0,10.119,8.006,18.013,18.013,18.013
			c9.896,0,17.901-7.894,17.901-18.013C321.089,203.264,313.084,195.258,303.188,195.258z"/>
		<path class="st0" d="M304.412,128.99c0,7.894-1.891,10.451-13.899,10.451h-20.569h-1.781h-15.231
			c-7.116,0-9.896-3.668-9.896-9.339V82.624h-34.802v46.366c0,7.894-1.89,10.451-13.787,10.451H81.033
			c-14.899,0-24.461-8.228-23.793-20.57l0.555-6.115h62.488V71.06H26.884l-4.225,41.808c-1.335,14.677,2.558,28.131,10.229,38.027
			c-22.46,11.452-34.024,32.689-32.801,55.261c1.335,23.35,14.677,46.031,45.699,70.827l21.682-32.467
			c-24.351-19.458-32.356-30.577-32.579-40.585c-0.333-13.787,12.12-22.793,40.14-22.793h119.417
			c14.789,0,25.351-4.558,32.579-12.231c7.894,7.005,20.458,12.231,40.027,12.231h1.11h1.781h20.569
			c34.357,0,48.701-24.461,48.701-52.147V82.624h-34.802V128.99z"/>
	</g>
	<polygon class="st1" points="59.706,41.539 35.297,41.539 35.297,28.501 58.114,28.501 58.114,20.77 35.297,20.77 35.297,7.731 
		59.706,7.731 59.706,0 26.884,0 26.884,49.271 59.706,49.271 	"/>
	<rect x="66.223" y="24.635" class="st1" width="16.98" height="6.118"/>
	<path class="st1" d="M121.708,23.73c3.33-2.18,5-5.54,5-10.09c0-4.19-1.36-7.51-4.09-9.96c-2.73-2.45-6.09-3.68-10.08-3.68h-22.82
		v49.27h24.26c3.94,0,7.35-1.3,10.23-3.9c2.88-2.61,4.32-6,4.32-10.2C128.528,29.87,126.258,26.05,121.708,23.73z M98.138,7.73
		h13.03c2.08,0,3.73,0.57,4.97,1.71c1.24,1.13,1.86,2.69,1.86,4.66c0,1.92-0.62,3.46-1.86,4.62c-1.24,1.17-2.89,1.75-4.97,1.75
		h-13.03V7.73z M117.878,39.53c-1.29,1.34-3.02,2.01-5.19,2.01h-14.55V27.52h14.55c2.12,0,3.84,0.67,5.15,2
		c1.32,1.34,1.98,3,1.98,4.97C119.818,36.51,119.168,38.19,117.878,39.53z"/>
	<polygon class="st1" points="176.89,41.539 152.481,41.539 152.481,28.501 175.298,28.501 175.298,20.77 152.481,20.77 
		152.481,7.731 176.89,7.731 176.89,0 144.068,0 144.068,49.271 176.89,49.271 	"/>
	<polygon class="st1" points="208.65,49.271 217.063,49.271 217.063,28.046 234.573,0 224.871,0 212.819,19.329 200.767,0 
		191.064,0 208.65,28.273 	"/>
	<path class="st1" d="M271.791,39.341c-1.971,1.566-4.498,2.35-7.58,2.35c-2.425,0-4.688-0.479-6.783-1.44
		c-2.098-0.959-3.703-2.122-4.813-3.486l-5.307,5.608c1.517,2.225,3.828,4.031,6.937,5.42c3.107,1.391,6.43,2.085,9.967,2.085
		c5.256,0,9.728-1.44,13.417-4.321c3.688-2.88,5.533-7.074,5.533-12.582c0-4.446-1.288-7.896-3.865-10.347s-5.812-4.056-9.703-4.813
		l12.355-10.612V0h-31.229v7.731h19.405l-14.479,11.674l-0.075,6.14c2.93-0.959,5.811-1.44,8.641-1.44
		c3.082,0,5.609,0.796,7.58,2.388c1.972,1.592,2.957,3.752,2.957,6.481C274.748,35.652,273.763,37.774,271.791,39.341z"/>
	<path class="st1" d="M445.565,43.86l10.82,37.73l9.546,33.311c1.79,6.245,7.5,10.549,13.997,10.549h85.127l-6.65,37.73H453.804
		c-7.867,0-14.782-5.212-16.949-12.775l-7.15-24.955l-12.58-43.86l-10.819-37.73L393.725,0h-90.593l12.58,43.86h44.973l10.82,37.73
		l12.569,43.86l10.82,37.73l4.562,15.907c4.747,16.549,19.881,27.953,37.097,27.953h158.65l7.73-43.86l6.66-37.73l7.729-43.86
		H506.446c-2.629,0-4.939-1.741-5.664-4.268l-6.247-21.792l-3.35-11.67h132.79L631.716,0h-198.73L445.565,43.86z"/>
	<polygon class="st1" points="670.025,0 662.295,43.86 655.636,81.59 647.905,125.45 641.256,163.18 633.516,207.04 678.056,207.04 
		685.785,163.18 692.435,125.45 700.176,81.59 706.825,43.86 714.556,0 	"/>
	
		<ellipse transform="matrix(0.9871 -0.1602 0.1602 0.9871 -35.8309 75.1865)" class="st1" cx="448.435" cy="259.838" rx="30.61" ry="30.61"/>
	<circle class="st1" cx="554.245" cy="259.838" r="30.61"/>
	<path class="st1" d="M650.608,229.23c-16.91,0-30.61,13.7-30.61,30.61c0,16.9,13.7,30.61,30.61,30.61
		c16.9,0,30.61-13.71,30.61-30.61C681.218,242.93,667.508,229.23,650.608,229.23z M648.208,265.55c0.41,0.49,1,0.77,1.64,0.77h18.21
		l-1.94,10.96h-33.96l1.93-10.96h5.13l4.21-23.93h25.63l-1.93,10.95h-17.51l-1.88,10.46
		C647.628,264.43,647.798,265.07,648.208,265.55z"/>
</g>
</svg>
