<?xml version="1.0" encoding="utf-8"?>
<!-- Generator: Adobe Illustrator 25.0.0, SVG Export Plug-In . SVG Version: 6.00 Build 0)  -->
<svg version="1.1" id="Layer_1" xmlns="http://www.w3.org/2000/svg" xmlns:xlink="http://www.w3.org/1999/xlink" x="0px" y="0px"
	 viewBox="0 0 567.944 400.947" style="enable-background:new 0 0 567.944 400.947;" xml:space="preserve">
<style type="text/css">
	.st0{fill:#2158A7;}
	.st1{fill:#F15925;}
	.st2{fill:#FFFFFF;}
</style>
<g>
	<path class="st1" d="M196.62,60.546l14.937,52.084l13.178,45.984c2.471,8.621,10.354,14.562,19.321,14.562h117.513l-9.18,52.084
		H207.993c-10.86,0-20.406-7.195-23.397-17.635l-9.87-34.449L157.36,112.63l-14.935-52.084L125.058,0H0l17.366,60.546h62.083
		l14.937,52.084l17.351,60.546l14.937,52.084l6.298,21.959c6.553,22.845,27.444,38.587,51.211,38.587h219.006l10.671-60.546
		l9.194-52.084l10.67-60.546H280.662c-3.629,0-6.818-2.404-7.818-5.892l-8.624-30.082l-4.624-16.11h183.308L453.589,0H179.254
		L196.62,60.546z"/>
	<polygon class="st1" points="506.472,0 495.801,60.546 486.608,112.63 475.937,173.176 466.758,225.259 456.073,285.805 
		517.558,285.805 528.228,225.259 537.408,173.176 548.093,112.63 557.272,60.546 567.944,0 	"/>
	
		<ellipse transform="matrix(0.9871 -0.1602 0.1602 0.9871 -54.8656 36.7612)" class="st1" cx="200.582" cy="358.689" rx="42.256" ry="42.256"/>
	<circle class="st1" cx="346.646" cy="358.689" r="42.256"/>
	<path class="st1" d="M479.668,316.437c-23.343,0-42.255,18.912-42.255,42.255c0,23.329,18.912,42.255,42.255,42.255
		c23.329,0,42.255-18.926,42.255-42.255C521.923,335.349,502.997,316.437,479.668,316.437z M476.355,366.574
		c0.566,0.676,1.38,1.063,2.264,1.063h25.138l-2.678,15.13h-46.88l2.664-15.13h7.082l5.812-33.034h35.381l-2.664,15.116h-24.171
		l-2.595,14.439C475.554,365.028,475.789,365.912,476.355,366.574z"/>
</g>
</svg>
